<?xml version="1.0" encoding="utf-8"?>
<!-- Generator: Adobe Illustrator 17.0.0, SVG Export Plug-In . SVG Version: 6.00 Build 0)  -->
<!DOCTYPE svg PUBLIC "-//W3C//DTD SVG 1.1//EN" "http://www.w3.org/Graphics/SVG/1.1/DTD/svg11.dtd">
<svg version="1.1" id="Layer_6" xmlns="http://www.w3.org/2000/svg" xmlns:xlink="http://www.w3.org/1999/xlink" x="0px" y="0px"
	 width="441.36px" height="488.458px" viewBox="0 0 441.36 488.458" enable-background="new 0 0 441.36 488.458"
	 xml:space="preserve">
<g id="Layer_5">
	<path fill="#FFFFFF" d="M432.205,215.142V70.917C342.739,13.844,260.741,9.216,220.68,9.216S98.621,13.844,9.155,70.917v144.225
		c0,0-5.399,143.84,111.447,208.24c83.851,45.652,100.078,54.759,100.078,54.759s16.227-9.107,100.078-54.759
		C437.604,358.982,432.205,215.142,432.205,215.142z"/>
	<polyline fill="#E43E32" points="58.992,368.064 429.68,193.461 429.68,78.211 18.757,271.951 18.757,309.201 	"/>
	<path fill="#EF4136" d="M58.992,368.064"/>
	<path fill="#EF4136" d="M24.18,306.461"/>
	<path id="inner" fill="#2D3F99" d="M88.034,153.486v38.276h32.388v-38.276l32.388,19.138l16.194-27.971l-32.388-18.402
		l32.388-19.138l-16.194-27.971L119.685,98.28V60.74H88.034v37.54L55.646,79.142l-16.194,27.971l32.388,19.138l-32.388,18.402
		l16.194,27.971L88.034,153.486z"/>
	<path id="eye" fill="#2D3F99" d="M85.919,81.149"/>
	
		<path id="path8" fill="none" stroke="#044B96" stroke-width="10" stroke-linecap="round" stroke-linejoin="round" stroke-miterlimit="10" d="
		M253.727,428.319c-25.926,18.237-61.718,12.028-79.991-13.877c-18.273-25.904-12.126-61.719,13.738-80.044
		c25.864-18.325,61.677-12.237,80.037,13.606c18.361,25.842,12.336,61.678-13.467,80.09L253.727,428.319z"/>
	<polyline id="polyline122" fill="#FFFFFF" points="203.808,354.309 205.238,358.605 209.744,358.647 206.121,361.343 
		207.477,365.669 203.808,363.036 200.139,365.669 201.493,361.343 197.869,358.647 202.375,358.605 203.808,354.309 	"/>
	<path id="path742" fill="none" d="M220.675,423.566c18.858-10.383,30.513-37.748,27.131-73.374
		h-54.263C190.161,385.818,201.815,413.182,220.675,423.566z"/>
	<path id="path762" fill="#DDA037" d="M218.728,363.529c0.053,0.091,0.051,0.252,0.035,0.287
		c-0.107-0.287-0.088-0.555-0.067-0.823C218.731,363.225,218.712,363.332,218.728,363.529"/>
	<path id="path796" fill="#DDA037" d="M215.929,379.376c0.072-0.105,0.037-0.287,0.109-0.408
		l-0.056,0.408H215.929"/>
	<path id="path804" fill="#DDA037" d="M227.096,384.356c-0.09-0.037-0.037-0.11-0.035-0.196
		C227.13,384.178,227.077,384.288,227.096,384.356"/>
	<polyline id="polyline814" fill="#DDA037" points="228.243,389.68 228.262,389.68 228.259,389.766 228.243,389.766 228.243,389.68 
			"/>
	<path id="path822" fill="#DDA037" d="M228.32,392.289c0-0.086-0.019-0.196,0.035-0.245
		L228.32,392.289"/>
	<path id="path828" fill="#DDA037" d="M216.142,393.752c-0.071,0.019-0.088-0.067-0.069-0.091
		C216.125,393.661,216.125,393.717,216.142,393.752"/>
	<path id="path120-9" fill="#044B96" d="M220.768,430.176
		c21.498-11.837,34.785-42.859,30.93-83.472h-61.862C185.981,387.317,199.267,418.339,220.768,430.176"/>
</g>
<g id="Layer_1">
	<g>
		<path fill="#543515" d="M220.68,488.458l-3.671-2.061c-0.164-0.092-17.361-9.726-100.727-55.113
			c-49.912-27.509-85.815-73.712-103.864-133.633c-13.258-44.017-12.41-79.854-12.313-82.847V65.54l3.466-2.211
			C69.446,21.307,142.491,0,220.68,0c78.188,0,151.233,21.307,217.106,63.33l3.467,2.211v149.264
			c0.098,2.993,0.945,38.831-12.313,82.847c-18.048,59.921-53.952,106.124-103.83,133.614
			c-83.399,45.405-100.596,55.04-100.76,55.132L220.68,488.458z M15.106,73.788l-0.005,141.427
			c-0.013,0.348-1.125,35.878,11.821,78.577c17.178,56.655,49.668,98.489,96.567,124.338c63.645,34.65,88.768,48.486,97.191,53.149
			c8.425-4.664,33.554-18.504,97.225-53.168c47.001-25.905,79.538-67.896,96.674-124.785c12.845-42.643,11.693-77.761,11.68-78.111
			l-0.005-0.281V73.788C363.737,34.776,294.595,15,220.68,15C146.765,15,77.623,34.776,15.106,73.788z"/>
	</g>
</g>
</svg>
